<svg width="574" height="350" viewBox="0 0 574 350" fill="none" xmlns="http://www.w3.org/2000/svg">
<path d="M116.639 64.8047H40.2129V81.9629H69.7441V175H87.1074V81.9629H116.639V64.8047ZM283.084 177.051C306.531 177.051 324.783 158.525 324.783 133.232V64.8047H307.352V133.164C307.352 148.408 296.482 159.551 283.016 159.551C269.549 159.551 258.816 148.408 258.816 133.164V64.8047H241.453V133.232C241.453 158.525 259.637 177.051 283.084 177.051Z" fill="#4B48F7"/>
<path d="M186.414 144.297C207.117 132.812 224.852 112.969 224.852 92.3438C224.852 67.5781 203.211 46.4062 176.414 46.4062C149.617 46.4062 128.211 66.7188 128.211 89.5312L155.398 98.5156C155.398 87.1875 165.242 77.9688 176.336 77.9688C184.695 77.9688 191.258 85.2344 191.258 93.6719C191.258 105.391 173.133 122.812 125.32 162.891V175H226.336V144.297H186.414Z" fill="#151291"/>
<path d="M0.655457 263.804C0.655457 269.72 4.77211 274.362 10.6467 274.362H26.5987C37.3173 250.554 61.7209 232.539 90.0563 232.539C118.393 232.539 142.791 250.554 153.515 274.362H360.862V188.934H0.655457V263.804Z" fill="#151290"/>
<path d="M90.0563 255.114C64.0866 255.114 43.0347 276.313 43.0347 302.464C43.0347 328.615 64.0866 349.814 90.0563 349.814C116.013 349.785 137.049 328.603 137.078 302.464C137.078 276.315 116.026 255.114 90.0563 255.114Z" fill="#151290"/>
<path d="M567.529 154.136L522.747 134.316H383.114V274.362H410.218C420.943 250.554 445.34 232.539 473.675 232.539C502.01 232.539 526.414 250.554 537.133 274.362H563.657C569.532 274.362 573.648 269.72 573.648 263.804V164.323C573.796 160.006 571.395 156.009 567.529 154.136Z" fill="#151290"/>
<path d="M476.706 53.5702C471.118 42.7796 459.959 36.0895 447.875 36.2828H383.114V111.908H506.774L476.706 53.5702Z" fill="#151290"/>
<path d="M473.672 255.114C447.703 255.116 426.651 276.315 426.652 302.466C426.654 328.617 447.705 349.815 473.675 349.814C499.632 349.785 520.666 328.603 520.695 302.464V302.463C520.694 276.313 499.642 255.114 473.672 255.114Z" fill="#151290"/>
</svg>
